<?xml version="1.0" encoding="UTF-8" standalone="no"?>
<svg
   viewBox="0 0 100 100"
   version="1.1"
   id="svg1"
   sodipodi:docname="gears.svg"
   inkscape:version="1.3.2 (091e20ef0f, 2023-11-25, custom)"
   xmlns:inkscape="http://www.inkscape.org/namespaces/inkscape"
   xmlns:sodipodi="http://sodipodi.sourceforge.net/DTD/sodipodi-0.dtd"
   xmlns="http://www.w3.org/2000/svg"
   xmlns:svg="http://www.w3.org/2000/svg"
   xmlns:rdf="http://www.w3.org/1999/02/22-rdf-syntax-ns#"
   xmlns:cc="http://creativecommons.org/ns#"
   xmlns:dc="http://purl.org/dc/elements/1.1/">
  <defs
     id="defs1" />
  <sodipodi:namedview
     id="namedview1"
     pagecolor="#ffffff"
     bordercolor="#000000"
     borderopacity="0.25"
     inkscape:showpageshadow="2"
     inkscape:pageopacity="0.0"
     inkscape:pagecheckerboard="0"
     inkscape:deskcolor="#d1d1d1"
     inkscape:zoom="6.3392123"
     inkscape:cx="31.549661"
     inkscape:cy="78.795279"
     inkscape:window-width="3810"
     inkscape:window-height="2063"
     inkscape:window-x="26"
     inkscape:window-y="23"
     inkscape:window-maximized="0"
     inkscape:current-layer="g1" />
  <title
     id="title1">PDP</title>
  <!-- <text x="55" y="125" class="gear_text">PDP</text> -->
  <g
     class="correct"
     id="g1">
    <g
       id="gear-group">
      <path
         id="gear1"
         class="gear"
         d="m 45.801918,0 -2.083023,11.865055 0.008,0.008 c -2.546073,0.41601 -5.009506,1.082772 -7.362509,1.970785 v -0.0079 l -7.731213,-9.2373052 -7.266434,4.198044 4.125902,11.3122822 0.01605,0.0079 c -1.969983,1.61715 -3.775582,3.42907 -5.391731,5.399864 l -0.008,-0.02407 -11.312276,-4.126027 -4.198039,7.266446 9.237281,7.739248 c -0.886492,2.351001 -1.54744,4.810733 -1.96286,7.354513 l -0.008,-0.0079 L 0,45.801956 v 8.396058 l 11.865048,2.083024 0.008,-0.0079 c 0.415415,2.54378 1.076368,5.003507 1.96286,7.354608 l -9.237281,7.739143 4.198039,7.266446 11.312277,-4.125932 0.008,-0.02414 c 1.616149,1.970689 3.421748,3.782814 5.391731,5.399749 l -0.01605,0.0079 -4.125902,11.312307 7.266434,4.198054 7.731213,-9.23725 v -0.0079 c 2.353003,0.887908 4.816436,1.55475 7.362509,1.970775 l -0.008,0.0079 L 45.801901,100 h 8.388029 l 2.08302,-11.865155 -0.008,-0.0079 c 2.54567,-0.414915 5.0098,-1.076149 7.36261,-1.962867 l 7.73913,9.23735 7.26644,-4.198044 -4.13394,-11.312332 c 1.96556,-1.612931 3.77027,-3.418642 5.38382,-5.383719 l 11.32024,4.125907 4.19,-7.266436 -9.22921,-7.739123 c 0.88673,-2.351426 1.55528,-4.810438 1.9708,-7.354623 L 100,54.198024 V 45.801956 L 88.13484,43.718932 c -0.41561,-2.541367 -1.08499,-4.99758 -1.9708,-7.346581 l 9.22921,-7.739133 -4.19,-7.266456 -11.32024,4.125927 C 78.26947,23.527622 76.46487,21.721911 74.4992,20.108975 L 78.63313,8.7966678 71.36669,4.5986238 63.62757,13.835949 c -2.35282,-0.886613 -4.81695,-1.547957 -7.36262,-1.962867 l 0.008,-0.0079 -2.083,-11.865100017171 h -8.388032 z m 4.19803,20.42942 c 16.333272,0 29.578552,13.237281 29.578552,29.570565 0,16.333284 -13.24528,29.570575 -29.578552,29.570575 -16.333269,0 -29.570548,-13.237291 -29.570548,-29.570575 0,-16.333284 13.237284,-29.570565 29.570548,-29.570565 z"
         stroke-dashoffset="0"
         stroke-miterlimit="4"
         stroke-linejoin="round"
         stroke-linecap="round"
         stroke-width="0.999686" />
      <path
         style="font-weight:bold;font-size:29.3333px;font-family:'JetBrains Mono';-inkscape-font-specification:'JetBrains Mono, Bold';opacity:0.99;stroke:#ffffff;stroke-width:0"
         d="M 24.736545,61.855503 V 40.442194 h 7.127991 q 2.141331,0 3.725329,0.821333 1.613332,0.821332 2.493331,2.31733 0.879999,1.466665 0.879999,3.46133 0,1.994664 -0.879999,3.490662 -0.879999,1.466665 -2.493331,2.287998 -1.583998,0.821332 -3.725329,0.821332 h -3.461329 v 8.213324 z m 3.666662,-11.439987 h 3.461329 q 1.554665,0 2.463998,-0.938665 0.909332,-0.938666 0.909332,-2.434664 0,-1.495999 -0.909332,-2.434664 -0.909333,-0.938666 -2.463998,-0.938666 H 28.403207 Z M 42.277869,61.855503 V 40.442194 h 6.365326 q 2.170664,0 3.754662,0.850666 1.613332,0.821332 2.493331,2.317331 0.879999,1.495998 0.879999,3.519996 v 8.00799 q 0,2.023998 -0.879999,3.54933 -0.879999,1.495998 -2.493331,2.346664 -1.583998,0.821332 -3.754662,0.821332 z m 3.666662,-3.285329 h 2.698664 q 1.583998,0 2.522664,-0.909333 0.938665,-0.938665 0.938665,-2.522664 v -8.00799 q 0,-1.554665 -0.938665,-2.463998 -0.938666,-0.938665 -2.522664,-0.938665 h -2.698664 z m 13.991995,3.285329 V 40.442194 h 7.127992 q 2.141331,0 3.725329,0.821333 1.613332,0.821332 2.493331,2.31733 0.879999,1.466665 0.879999,3.46133 0,1.994664 -0.879999,3.490662 -0.879999,1.466665 -2.493331,2.287998 -1.583998,0.821332 -3.725329,0.821332 h -3.461329 v 8.213324 z m 3.666663,-11.439987 h 3.461329 q 1.554665,0 2.463997,-0.938665 0.909333,-0.938666 0.909333,-2.434664 0,-1.495999 -0.909333,-2.434664 -0.909332,-0.938666 -2.463997,-0.938666 h -3.461329 z"
         id="text1"
         transform="scale(1.0241598,0.97641012)"
         aria-label="PDP" />
    </g>
  </g>
  <metadata
     id="metadata3">
    <rdf:RDF>
      <cc:Work
         rdf:about="">
        <dc:title>PDP</dc:title>
      </cc:Work>
    </rdf:RDF>
  </metadata>
</svg>
