<svg version="1.1" viewBox="0 0 100 100" xmlns="http://www.w3.org/2000/svg">
 <title>PDP</title>
 <g class="correct">
  <g id="gear-group">
   <path class="gear" id="gear1" d="m45.802 0-2.083 11.865 8e-3 8e-3c-2.5461 0.41601-5.0095 1.0828-7.3625 1.9708v-0.0079l-7.7312-9.2373-7.2664 4.198 4.1259 11.312 0.01605 0.0079c-1.97 1.6172-3.7756 3.4291-5.3917 5.3999l-8e-3 -0.02407-11.312-4.126-4.198 7.2664 9.2373 7.7392c-0.88649 2.351-1.5474 4.8107-1.9629 7.3545l-8e-3 -0.0079-11.865 2.083v8.3961l11.865 2.083 8e-3 -0.0079c0.41542 2.5438 1.0764 5.0035 1.9629 7.3546l-9.2373 7.7391 4.198 7.2664 11.312-4.1259 8e-3 -0.02414c1.6161 1.9707 3.4217 3.7828 5.3917 5.3997l-0.01605 0.0079-4.1259 11.312 7.2664 4.1981 7.7312-9.2372v-0.0079c2.353 0.88791 4.8164 1.5548 7.3625 1.9708l-8e-3 0.0079 2.083 11.865h8.388l2.083-11.865-8e-3 -0.0079c2.5457-0.41492 5.0098-1.0761 7.3626-1.9629l7.7391 9.2374 7.2664-4.198-4.1339-11.312c1.9656-1.6129 3.7703-3.4186 5.3838-5.3837l11.32 4.1259 4.19-7.2664-9.2292-7.7391c0.88673-2.3514 1.5553-4.8104 1.9708-7.3546l11.865-2.075v-8.3961l-11.865-2.083c-0.41561-2.5414-1.085-4.9976-1.9708-7.3466l9.2292-7.7391-4.19-7.2665-11.32 4.1259c-1.6135-1.9651-3.4181-3.7708-5.3838-5.3837l4.1339-11.312-7.2664-4.198-7.7391 9.2373c-2.3528-0.88661-4.817-1.548-7.3626-1.9629l8e-3 -0.0079-2.083-11.865h-8.388zm4.198 20.429c16.333 0 29.579 13.237 29.579 29.571s-13.245 29.571-29.579 29.571c-16.333 0-29.571-13.237-29.571-29.571s13.237-29.571 29.571-29.571z" stroke-linecap="round" stroke-linejoin="round" stroke-width=".99969"/>
   <path transform="scale(1.0242 .97641)" d="m24.737 61.856v-21.413h7.128q2.1413 0 3.7253 0.82133 1.6133 0.82133 2.4933 2.3173 0.88 1.4667 0.88 3.4613 0 1.9947-0.88 3.4907-0.88 1.4667-2.4933 2.288-1.584 0.82133-3.7253 0.82133h-3.4613v8.2133zm3.6667-11.44h3.4613q1.5547 0 2.464-0.93866 0.90933-0.93867 0.90933-2.4347 0-1.496-0.90933-2.4347-0.90933-0.93867-2.464-0.93867h-3.4613zm13.875 11.44v-21.413h6.3653q2.1707 0 3.7547 0.85067 1.6133 0.82133 2.4933 2.3173 0.88 1.496 0.88 3.52v8.008q0 2.024-0.88 3.5493-0.88 1.496-2.4933 2.3467-1.584 0.82133-3.7547 0.82133zm3.6667-3.2853h2.6987q1.584 0 2.5227-0.90933 0.93866-0.93866 0.93866-2.5227v-8.008q0-1.5547-0.93866-2.464-0.93867-0.93866-2.5227-0.93866h-2.6987zm13.992 3.2853v-21.413h7.128q2.1413 0 3.7253 0.82133 1.6133 0.82133 2.4933 2.3173 0.88 1.4667 0.88 3.4613 0 1.9947-0.88 3.4907-0.88 1.4667-2.4933 2.288-1.584 0.82133-3.7253 0.82133h-3.4613v8.2133zm3.6667-11.44h3.4613q1.5547 0 2.464-0.93866 0.90933-0.93867 0.90933-2.4347 0-1.496-0.90933-2.4347-0.90933-0.93867-2.464-0.93867h-3.4613z" opacity=".99" stroke-width="0" aria-label="PDP"/>
  </g>
 </g>
</svg>
